<?xml version="1.0" standalone="no"?>
<!DOCTYPE svg PUBLIC "-//W3C//DTD SVG 20010904//EN"
 "http://www.w3.org/TR/2001/REC-SVG-20010904/DTD/svg10.dtd">
<svg version="1.0" xmlns="http://www.w3.org/2000/svg"
 width="360.000000pt" height="360.000000pt" viewBox="0 0 360.000000 360.000000"
 preserveAspectRatio="xMidYMid meet">
<metadata>
Created by potrace 1.11, written by Peter Selinger 2001-2013
</metadata>
<g transform="translate(0.000000,360.000000) scale(0.100000,-0.100000)"
fill="#000000" stroke="none">
<path d="M10 3060 c0 -297 2 -540 5 -540 2 0 24 7 47 15 24 7 165 51 313 95
360 109 484 147 580 176 44 14 89 27 101 29 11 3 50 14 85 25 35 12 100 32
144 45 44 13 163 49 265 80 102 31 192 58 200 60 8 1 38 10 65 19 183 59 373
111 368 102 -11 -20 -132 -199 -234 -346 -55 -80 -134 -194 -175 -255 -42 -60
-111 -162 -155 -225 -44 -63 -97 -140 -117 -170 -336 -490 -621 -905 -629
-915 -5 -5 -39 -55 -76 -110 -38 -55 -101 -147 -141 -205 -117 -170 -337 -491
-370 -540 -16 -25 -32 -47 -36 -50 -3 -3 -21 -30 -42 -60 -20 -30 -72 -108
-116 -172 l-81 -118 1790 0 1789 0 0 495 c0 272 -1 495 -3 495 -1 0 -18 -5
-37 -10 -62 -19 -1582 -439 -1640 -454 -8 -3 -73 -21 -145 -41 -71 -20 -137
-38 -145 -40 -8 -2 -73 -20 -144 -40 -71 -19 -130 -34 -132 -32 -3 2 145 217
478 692 47 66 241 345 433 620 192 275 455 652 584 837 372 533 610 873 684
980 l68 98 -1790 0 -1791 0 0 -540z"/>
</g>
</svg>
